<svg width="512" height="512" xmlns="http://www.w3.org/2000/svg">
 <g>
  <title>background</title>
  <rect x="-1" y="-1" width="514" height="514" id="canvas_background" fill="none"/>
 </g>

 <g>
  <title>Layer 1</title>
  <g id="svg_1">
   <g id="svg_2">
    <path d="m363.273,0l-214.545,0c-82.009,0 -148.728,66.719 -148.728,148.728l0,214.544c0,82.009 66.719,148.728 148.728,148.728l214.544,0c82.009,0 148.728,-66.719 148.728,-148.727l0,-214.545c0,-82.009 -66.719,-148.728 -148.727,-148.728zm108.727,363.272c0,59.953 -48.775,108.728 -108.727,108.728l-214.545,0c-59.953,0 -108.728,-48.775 -108.728,-108.727l0,-214.545c0,-59.953 48.775,-108.728 108.728,-108.728l214.544,0c59.953,0 108.728,48.775 108.728,108.728l0,214.544z" id="svg_3" fill="#000000"/>
   </g>
  </g>
  <g id="svg_4">
   <g id="svg_5">
    <path d="m256,118c-76.094,0 -138,61.906 -138,138s61.906,138 138,138s138,-61.906 138,-138s-61.906,-138 -138,-138zm0,236c-54.037,0 -98,-43.963 -98,-98s43.963,-98 98,-98s98,43.963 98,98s-43.963,98 -98,98z" id="svg_6" fill="#000000"/>
   </g>
  </g>
  <g id="svg_7">
   <g id="svg_8">
    <circle cx="396" cy="116" r="20" id="svg_9" fill="#000000"/>
   </g>
  </g>
  <g id="svg_10"/>
  <g id="svg_11"/>
  <g id="svg_12"/>
  <g id="svg_13"/>
  <g id="svg_14"/>
  <g id="svg_15"/>
  <g id="svg_16"/>
  <g id="svg_17"/>
  <g id="svg_18"/>
  <g id="svg_19"/>
  <g id="svg_20"/>
  <g id="svg_21"/>
  <g id="svg_22"/>
  <g id="svg_23"/>
  <g id="svg_24"/>
 </g>
</svg>