<svg width="24" height="24" xmlns="http://www.w3.org/2000/svg">

 <g>
  <title>background</title>
  <rect fill="none" id="canvas_background" height="402" width="582" y="-1" x="-1"/>
 </g>
 <g>
  <title>Layer 1</title>
  <path fill="#fcfcfc" id="svg_1" d="m17.507,14.307l-0.009,0.075c-2.199,-1.096 -2.429,-1.242 -2.713,-0.816c-0.197,0.295 -0.771,0.964 -0.944,1.162c-0.175,0.195 -0.349,0.21 -0.646,0.075c-0.3,-0.15 -1.263,-0.465 -2.403,-1.485c-0.888,-0.795 -1.484,-1.77 -1.66,-2.07c-0.293,-0.506 0.32,-0.578 0.878,-1.634c0.1,-0.21 0.049,-0.375 -0.025,-0.524c-0.075,-0.15 -0.672,-1.62 -0.922,-2.206c-0.24,-0.584 -0.487,-0.51 -0.672,-0.51c-0.576,-0.05 -0.997,-0.042 -1.368,0.344c-1.614,1.774 -1.207,3.604 0.174,5.55c2.714,3.552 4.16,4.206 6.804,5.114c0.714,0.227 1.365,0.195 1.88,0.121c0.574,-0.091 1.767,-0.721 2.016,-1.426c0.255,-0.705 0.255,-1.29 0.18,-1.425c-0.074,-0.135 -0.27,-0.21 -0.57,-0.345z"/>
  <path fill="#ffffff" id="svg_2" d="m20.52,3.449c-7.689,-7.433 -20.414,-2.042 -20.419,8.444c0,2.096 0.549,4.14 1.595,5.945l-1.696,6.162l6.335,-1.652c7.905,4.27 17.661,-1.4 17.665,-10.449c0,-3.176 -1.24,-6.165 -3.495,-8.411l0.015,-0.039zm1.482,8.417c-0.006,7.633 -8.385,12.4 -15.012,8.504l-0.36,-0.214l-3.75,0.975l1.005,-3.645l-0.239,-0.375c-4.124,-6.565 0.614,-15.145 8.426,-15.145c2.654,0 5.145,1.035 7.021,2.91c1.875,1.859 2.909,4.35 2.909,6.99z"/>
 </g>
</svg>